<mxfile host="Electron" modified="2024-05-21T09:04:08.525Z" agent="Mozilla/5.0 (Macintosh; Intel Mac OS X 10_15_7) AppleWebKit/537.36 (KHTML, like Gecko) draw.io/22.1.2 Chrome/114.0.5735.289 Electron/25.9.4 Safari/537.36" etag="VN6CK9Boxt2S1mXg8gDY" version="22.1.2" type="device">
  <diagram name="第 1 页" id="HxIDcb4IiO5QmENovMV3">
    <mxGraphModel dx="984" dy="649" grid="1" gridSize="10" guides="1" tooltips="1" connect="1" arrows="1" fold="1" page="1" pageScale="1" pageWidth="827" pageHeight="1169" math="0" shadow="0">
      <root>
        <mxCell id="0" />
        <mxCell id="1" parent="0" />
        <mxCell id="Wt5jb8vSi4n3VgaaV5ap-7" style="edgeStyle=orthogonalEdgeStyle;rounded=0;orthogonalLoop=1;jettySize=auto;html=1;exitX=0.5;exitY=1;exitDx=0;exitDy=0;entryX=0.5;entryY=0;entryDx=0;entryDy=0;fontFamily=Times New Roman;fontStyle=1;fontSize=13;labelBackgroundColor=none;strokeColor=#457B9D;fontColor=default;" edge="1" parent="1" source="Wt5jb8vSi4n3VgaaV5ap-1" target="Wt5jb8vSi4n3VgaaV5ap-2">
          <mxGeometry relative="1" as="geometry" />
        </mxCell>
        <mxCell id="Wt5jb8vSi4n3VgaaV5ap-1" value="程序开始" style="rounded=1;whiteSpace=wrap;html=1;fontFamily=Times New Roman;fontStyle=1;fontSize=13;labelBackgroundColor=none;fillColor=#A8DADC;strokeColor=#457B9D;fontColor=#1D3557;" vertex="1" parent="1">
          <mxGeometry x="130" y="40" width="120" height="60" as="geometry" />
        </mxCell>
        <mxCell id="Wt5jb8vSi4n3VgaaV5ap-8" style="edgeStyle=orthogonalEdgeStyle;rounded=0;orthogonalLoop=1;jettySize=auto;html=1;exitX=0.5;exitY=1;exitDx=0;exitDy=0;entryX=0.5;entryY=0;entryDx=0;entryDy=0;fontFamily=Times New Roman;fontStyle=1;fontSize=13;labelBackgroundColor=none;strokeColor=#457B9D;fontColor=default;" edge="1" parent="1" source="Wt5jb8vSi4n3VgaaV5ap-2" target="Wt5jb8vSi4n3VgaaV5ap-3">
          <mxGeometry relative="1" as="geometry" />
        </mxCell>
        <mxCell id="Wt5jb8vSi4n3VgaaV5ap-2" value="设置中断向量&lt;br style=&quot;font-size: 13px;&quot;&gt;发送中断屏蔽命令" style="rounded=0;whiteSpace=wrap;html=1;fontFamily=Times New Roman;fontStyle=1;fontSize=13;labelBackgroundColor=none;fillColor=#A8DADC;strokeColor=#457B9D;fontColor=#1D3557;" vertex="1" parent="1">
          <mxGeometry x="130" y="140" width="120" height="60" as="geometry" />
        </mxCell>
        <mxCell id="Wt5jb8vSi4n3VgaaV5ap-9" style="edgeStyle=orthogonalEdgeStyle;rounded=0;orthogonalLoop=1;jettySize=auto;html=1;exitX=0.5;exitY=1;exitDx=0;exitDy=0;entryX=0.5;entryY=0;entryDx=0;entryDy=0;fontFamily=Times New Roman;fontStyle=1;fontSize=13;labelBackgroundColor=none;strokeColor=#457B9D;fontColor=default;" edge="1" parent="1" source="Wt5jb8vSi4n3VgaaV5ap-3" target="Wt5jb8vSi4n3VgaaV5ap-4">
          <mxGeometry relative="1" as="geometry" />
        </mxCell>
        <mxCell id="Wt5jb8vSi4n3VgaaV5ap-3" value="制造PC6上升沿" style="rounded=0;whiteSpace=wrap;html=1;fontFamily=Times New Roman;fontStyle=1;fontSize=13;labelBackgroundColor=none;fillColor=#A8DADC;strokeColor=#457B9D;fontColor=#1D3557;" vertex="1" parent="1">
          <mxGeometry x="130" y="240" width="120" height="60" as="geometry" />
        </mxCell>
        <mxCell id="Wt5jb8vSi4n3VgaaV5ap-15" style="edgeStyle=orthogonalEdgeStyle;rounded=0;orthogonalLoop=1;jettySize=auto;html=1;entryX=0.5;entryY=0;entryDx=0;entryDy=0;fontFamily=Times New Roman;fontStyle=1;fontSize=13;labelBackgroundColor=none;strokeColor=#457B9D;fontColor=default;" edge="1" parent="1" source="Wt5jb8vSi4n3VgaaV5ap-4" target="Wt5jb8vSi4n3VgaaV5ap-5">
          <mxGeometry relative="1" as="geometry" />
        </mxCell>
        <mxCell id="Wt5jb8vSi4n3VgaaV5ap-19" value="Y" style="edgeLabel;html=1;align=center;verticalAlign=middle;resizable=0;points=[];fontFamily=Times New Roman;fontStyle=1;fontSize=13;labelBackgroundColor=none;fontColor=#1D3557;" vertex="1" connectable="0" parent="Wt5jb8vSi4n3VgaaV5ap-15">
          <mxGeometry x="-0.4" y="1" relative="1" as="geometry">
            <mxPoint as="offset" />
          </mxGeometry>
        </mxCell>
        <mxCell id="Wt5jb8vSi4n3VgaaV5ap-16" style="edgeStyle=orthogonalEdgeStyle;rounded=0;orthogonalLoop=1;jettySize=auto;html=1;entryX=0;entryY=0.5;entryDx=0;entryDy=0;fontFamily=Times New Roman;fontStyle=1;fontSize=13;labelBackgroundColor=none;strokeColor=#457B9D;fontColor=default;" edge="1" parent="1" source="Wt5jb8vSi4n3VgaaV5ap-4" target="Wt5jb8vSi4n3VgaaV5ap-6">
          <mxGeometry relative="1" as="geometry" />
        </mxCell>
        <mxCell id="Wt5jb8vSi4n3VgaaV5ap-18" value="N" style="edgeLabel;html=1;align=center;verticalAlign=middle;resizable=0;points=[];fontFamily=Times New Roman;fontStyle=1;fontSize=13;labelBackgroundColor=none;fontColor=#1D3557;" vertex="1" connectable="0" parent="Wt5jb8vSi4n3VgaaV5ap-16">
          <mxGeometry x="-0.1429" relative="1" as="geometry">
            <mxPoint as="offset" />
          </mxGeometry>
        </mxCell>
        <mxCell id="Wt5jb8vSi4n3VgaaV5ap-4" value="CX = 0？" style="rhombus;whiteSpace=wrap;html=1;fontFamily=Times New Roman;fontStyle=1;fontSize=13;labelBackgroundColor=none;fillColor=#A8DADC;strokeColor=#457B9D;fontColor=#1D3557;" vertex="1" parent="1">
          <mxGeometry x="110" y="350" width="160" height="80" as="geometry" />
        </mxCell>
        <mxCell id="Wt5jb8vSi4n3VgaaV5ap-5" value="程序结束" style="rounded=1;whiteSpace=wrap;html=1;fontFamily=Times New Roman;fontStyle=1;fontSize=13;labelBackgroundColor=none;fillColor=#A8DADC;strokeColor=#457B9D;fontColor=#1D3557;" vertex="1" parent="1">
          <mxGeometry x="130" y="490" width="120" height="60" as="geometry" />
        </mxCell>
        <mxCell id="Wt5jb8vSi4n3VgaaV5ap-17" style="edgeStyle=orthogonalEdgeStyle;rounded=0;orthogonalLoop=1;jettySize=auto;html=1;exitX=1;exitY=0.5;exitDx=0;exitDy=0;entryX=1;entryY=0.5;entryDx=0;entryDy=0;fontFamily=Times New Roman;fontStyle=1;fontSize=13;labelBackgroundColor=none;strokeColor=#457B9D;fontColor=default;" edge="1" parent="1" source="Wt5jb8vSi4n3VgaaV5ap-6" target="Wt5jb8vSi4n3VgaaV5ap-3">
          <mxGeometry relative="1" as="geometry" />
        </mxCell>
        <mxCell id="Wt5jb8vSi4n3VgaaV5ap-6" value="调用中断服务&lt;br style=&quot;font-size: 13px;&quot;&gt;控制小灯泡亮灭" style="rounded=0;whiteSpace=wrap;html=1;fontFamily=Times New Roman;fontStyle=1;fontSize=13;labelBackgroundColor=none;fillColor=#A8DADC;strokeColor=#457B9D;fontColor=#1D3557;" vertex="1" parent="1">
          <mxGeometry x="340" y="360" width="120" height="60" as="geometry" />
        </mxCell>
      </root>
    </mxGraphModel>
  </diagram>
</mxfile>
